<svg width="122" height="49" viewBox="0 0 122 49" fill="none" xmlns="http://www.w3.org/2000/svg">
<path d="M0.0767045 48V1.45454H31.4403V9.56818H9.91761V20.6591H29.8267V28.7727H9.91761V39.8864H31.5312V48H0.0767045ZM47.2869 48H36.7415L52.8097 1.45454H65.4915L81.5369 48H70.9915L59.3324 12.0909H58.9688L47.2869 48ZM46.6278 29.7045H71.5369V37.3864H46.6278V29.7045ZM111.327 14.8409C111.145 13.0076 110.365 11.5833 108.986 10.5682C107.607 9.55303 105.736 9.04545 103.372 9.04545C101.766 9.04545 100.41 9.27273 99.304 9.72727C98.1979 10.1667 97.3494 10.7803 96.7585 11.5682C96.1828 12.3561 95.8949 13.25 95.8949 14.25C95.8646 15.0833 96.0388 15.8106 96.4176 16.4318C96.8116 17.053 97.3494 17.5909 98.0312 18.0455C98.7131 18.4848 99.5009 18.8712 100.395 19.2045C101.289 19.5227 102.243 19.7955 103.259 20.0227L107.44 21.0227C109.471 21.4773 111.334 22.0833 113.031 22.8409C114.728 23.5985 116.198 24.5303 117.44 25.6364C118.683 26.7424 119.645 28.0455 120.327 29.5455C121.024 31.0455 121.38 32.7652 121.395 34.7045C121.38 37.553 120.652 40.0227 119.213 42.1136C117.789 44.1894 115.728 45.803 113.031 46.9545C110.349 48.0909 107.115 48.6591 103.327 48.6591C99.5691 48.6591 96.2964 48.0833 93.5085 46.9318C90.7358 45.7803 88.5691 44.0758 87.0085 41.8182C85.4631 39.5455 84.6525 36.7348 84.5767 33.3864H94.0994C94.2055 34.947 94.6525 36.25 95.4403 37.2955C96.2434 38.3258 97.3116 39.1061 98.6449 39.6364C99.9934 40.1515 101.516 40.4091 103.213 40.4091C104.88 40.4091 106.327 40.1667 107.554 39.6818C108.796 39.197 109.759 38.5227 110.44 37.6591C111.122 36.7955 111.463 35.803 111.463 34.6818C111.463 33.6364 111.152 32.7576 110.531 32.0455C109.925 31.3333 109.031 30.7273 107.849 30.2273C106.683 29.7273 105.251 29.2727 103.554 28.8636L98.4858 27.5909C94.5616 26.6364 91.4631 25.1439 89.1903 23.1136C86.9176 21.0833 85.7888 18.3485 85.804 14.9091C85.7888 12.0909 86.5388 9.62879 88.054 7.52273C89.5843 5.41667 91.6828 3.77273 94.3494 2.59091C97.0161 1.40909 100.046 0.81818 103.44 0.81818C106.895 0.81818 109.91 1.40909 112.486 2.59091C115.077 3.77273 117.092 5.41667 118.531 7.52273C119.971 9.62879 120.713 12.0682 120.759 14.8409H111.327Z" fill="#F8FAFC"/>
</svg>
